<svg width="834" height="212" viewBox="0 0 834 212" fill="none" xmlns="http://www.w3.org/2000/svg">
<path d="M0 44.4361H63.8343V65.6959H24.2303V94.4365H62.7345V115.696H24.2303V164.432H0.0268581L0 44.4361Z" fill="#D9B477"></path>
<path d="M162.34 164.432H136.049L184.728 44.3262H206.016L253.569 164.432H227.111L218.337 140.917H170.95L162.34 164.432ZM194.327 72.9017L177.275 121.582H211.846L194.327 72.9017Z" fill="#D9B477"></path>
<path d="M350.131 164.432H329.861V151.615C325.956 158.271 317.512 167.209 299.333 167.209C271.83 167.209 254.201 145.785 254.201 119.794C254.201 90.9162 274.829 72.5716 299.004 72.5716C316.056 72.5716 325.626 81.6476 328.872 86.8457V44.4361H350.131V164.432ZM275.461 119.794C275.336 123.421 275.954 127.035 277.278 130.414C278.602 133.793 280.603 136.865 283.159 139.441C285.714 142.018 288.771 144.044 292.139 145.395C295.507 146.746 299.116 147.393 302.744 147.297C306.417 147.318 310.056 146.612 313.455 145.22C316.854 143.827 319.943 141.776 322.545 139.184C327.5 133.886 330.23 126.886 330.169 119.632C330.108 112.378 327.26 105.426 322.216 100.212C319.677 97.7125 316.669 95.7382 313.365 94.4026C310.061 93.067 306.527 92.3963 302.964 92.4289C299.342 92.3119 295.734 92.9351 292.36 94.2603C288.987 95.5854 285.918 97.5846 283.344 100.136C280.77 102.687 278.744 105.736 277.388 109.098C276.033 112.459 275.377 116.061 275.461 119.684V119.794Z" fill="#D9B477"></path>
<path d="M410.528 164.431H389.79L356.787 75.3216H378.789L400.214 137.671L421.639 75.3216H443.642L410.528 164.431Z" fill="#D9B477"></path>
<path d="M536.795 164.431H515.535V151.614C509.869 162.01 498.014 167.209 485.5 167.209C456.952 167.209 440.231 144.959 440.231 119.793C440.231 91.7128 460.5 72.5706 485.5 72.5706C501.755 72.5706 511.657 81.1792 515.535 88.3024V75.3209H536.795V164.431ZM461.49 120.426C461.49 131.427 469.439 147.544 488.581 147.544C493.496 147.728 498.359 146.473 502.57 143.933C506.782 141.392 510.16 137.676 512.289 133.242C514.308 129.373 515.47 125.114 515.699 120.756C515.861 116.454 515.033 112.173 513.279 108.242C511.197 103.446 507.728 99.3845 503.316 96.5804C498.903 93.7762 493.752 92.3585 488.526 92.5103C471.309 92.5103 461.574 106.454 461.574 120.261L461.49 120.426Z" fill="#D9B477"></path>
<path d="M551.397 75.4342H571.31C571.31 79.3396 571.31 83.08 571.145 87.2879C575.05 80.3022 582.999 72.5188 598.923 72.6839C627.966 72.8489 633.494 95.0713 633.494 110.83V164.434H612.234V116.194C612.234 102.882 607.834 92.6511 592.982 92.6511C578.131 92.6511 572.712 102.882 572.712 115.368V164.434H551.426L551.397 75.4342Z" fill="#D9B477"></path>
<path d="M736.328 132.088C733.46 143.334 726.584 153.146 716.993 159.682C707.401 166.217 695.755 169.026 684.239 167.581C672.723 166.136 662.131 160.536 654.452 151.833C646.773 143.13 642.535 131.923 642.535 120.317C642.535 108.71 646.773 97.5032 654.452 88.8003C662.131 80.0974 672.723 74.4975 684.239 73.0522C695.755 71.6069 707.401 74.4156 716.993 80.9511C726.584 87.4865 733.46 97.2988 736.328 108.545H714.601C712.893 104.581 710.244 101.092 706.885 98.381C703.525 95.6702 699.554 93.819 695.318 92.9875C691.082 92.156 686.708 92.3691 682.573 93.6087C678.437 94.8484 674.666 97.077 671.586 100.102C666.748 105.55 664.136 112.619 664.27 119.904C664.27 135.993 675.464 147.407 690.563 147.407C695.64 147.576 700.65 146.21 704.939 143.487C709.227 140.764 712.595 136.81 714.601 132.143L736.328 132.088Z" fill="#D9B477"></path>
<path d="M761.604 127.057C762.566 141.331 775.355 149.307 787.401 149.059C791.747 149.285 796.068 148.277 799.865 146.15C803.661 144.023 806.778 140.865 808.854 137.04H830.857C827.167 146.102 820.904 153.885 812.841 159.428C805.363 164.6 796.467 167.329 787.374 167.239C775.019 166.987 763.251 161.913 754.587 153.102C745.922 144.29 741.049 132.439 741.006 120.081C740.963 107.723 745.755 95.8385 754.357 86.9665C762.96 78.0945 774.691 72.9388 787.044 72.6009C793.235 72.5077 799.38 73.6793 805.102 76.0439C810.824 78.4084 816.003 81.9162 820.323 86.3524C825.509 91.6665 829.395 98.109 831.676 105.176C833.956 112.242 834.57 119.741 833.469 127.084L761.604 127.057ZM812.402 110.83C811.605 102.387 802.666 90.5329 787.099 90.698C771.532 90.863 762.732 102.057 761.934 110.83H812.402Z" fill="#D9B477"></path>
<rect x="141.745" y="0.71582" width="3.35131" height="222.149" transform="rotate(18.9501 141.745 0.71582)" fill="url(#paint0_linear_16_811)"></rect>
<defs>
<linearGradient id="paint0_linear_16_811" x1="143.421" y1="0.71582" x2="143.421" y2="222.865" gradientUnits="userSpaceOnUse">
<stop offset="0.15625" stop-color="white" stop-opacity="0"></stop>
<stop offset="0.433345" stop-color="#D9B477"></stop>
<stop offset="0.456179" stop-color="#D9B477"></stop>
<stop offset="0.875" stop-color="white" stop-opacity="0"></stop>
</linearGradient>
</defs>
</svg>