<svg width="834" height="244" viewBox="0 0 834 244" fill="none" xmlns="http://www.w3.org/2000/svg">
<path d="M0 44.5787H63.8343V65.8384H24.2303V94.5791H62.7345V115.839H24.2303V164.574H0.0268581L0 44.5787Z" fill="black"></path>
<path d="M162.34 164.574H136.049L184.728 44.4688H206.016L253.569 164.574H227.111L218.337 141.059H170.95L162.34 164.574ZM194.327 73.0442L177.275 121.725H211.846L194.327 73.0442Z" fill="black"></path>
<path d="M350.131 164.574H329.861V151.758C325.956 158.414 317.512 167.352 299.333 167.352C271.83 167.352 254.201 145.927 254.201 119.937C254.201 91.0588 274.829 72.7142 299.004 72.7142C316.056 72.7142 325.626 81.7902 328.872 86.9883V44.5787H350.131V164.574ZM275.461 119.937C275.336 123.564 275.954 127.178 277.278 130.557C278.602 133.935 280.603 137.008 283.159 139.584C285.714 142.16 288.771 144.186 292.139 145.537C295.507 146.888 299.116 147.536 302.744 147.44C306.417 147.461 310.056 146.755 313.455 145.362C316.854 143.97 319.943 141.919 322.545 139.327C327.5 134.028 330.23 127.028 330.169 119.775C330.108 112.521 327.26 105.568 322.216 100.355C319.677 97.8551 316.669 95.8808 313.365 94.5452C310.061 93.2096 306.527 92.5389 302.964 92.5714C299.342 92.4545 295.734 93.0777 292.36 94.4028C288.987 95.728 285.918 97.7272 283.344 100.278C280.77 102.829 278.744 105.879 277.388 109.24C276.033 112.601 275.377 116.204 275.461 119.827V119.937Z" fill="black"></path>
<path d="M410.528 164.574H389.791L356.787 75.4642H378.789L400.214 137.814L421.639 75.4642H443.642L410.528 164.574Z" fill="black"></path>
<path d="M536.795 164.573H515.535V151.757C509.869 162.153 498.014 167.351 485.5 167.351C456.952 167.351 440.231 145.101 440.231 119.936C440.231 91.8554 460.5 72.7132 485.5 72.7132C501.755 72.7132 511.657 81.3217 515.535 88.445V75.4635H536.795V164.573ZM461.49 120.568C461.49 131.57 469.439 147.686 488.581 147.686C493.496 147.871 498.359 146.616 502.57 144.075C506.782 141.534 510.16 137.819 512.289 133.385C514.308 129.515 515.47 125.257 515.699 120.899C515.861 116.597 515.033 112.316 513.279 108.385C511.197 103.589 507.728 99.5271 503.316 96.7229C498.903 93.9188 493.752 92.5011 488.526 92.6529C471.309 92.6529 461.574 106.597 461.574 120.403L461.49 120.568Z" fill="black"></path>
<path d="M551.397 75.5767H571.31C571.31 79.4822 571.31 83.2226 571.145 87.4305C575.051 80.4448 582.999 72.6614 598.923 72.8264C627.966 72.9915 633.494 95.2139 633.494 110.973V164.576H612.234V116.336C612.234 103.025 607.834 92.7936 592.982 92.7936C578.131 92.7936 572.712 103.025 572.712 115.511V164.576H551.426L551.397 75.5767Z" fill="black"></path>
<path d="M736.328 132.23C733.46 143.477 726.584 153.289 716.993 159.824C707.401 166.36 695.755 169.169 684.239 167.724C672.723 166.278 662.131 160.678 654.452 151.975C646.773 143.272 642.535 132.065 642.535 120.459C642.535 108.853 646.773 97.6457 654.452 88.9428C662.131 80.2399 672.723 74.64 684.239 73.1948C695.755 71.7495 707.401 74.5582 716.993 81.0936C726.584 87.6291 733.46 97.4414 736.328 108.688H714.601C712.893 104.723 710.244 101.234 706.885 98.5236C703.525 95.8127 699.554 93.9616 695.318 93.1301C691.082 92.2985 686.708 92.5117 682.573 93.7513C678.437 94.9909 674.666 97.2196 671.586 100.244C666.748 105.692 664.136 112.761 664.27 120.047C664.27 136.136 675.464 147.55 690.563 147.55C695.64 147.719 700.65 146.353 704.939 143.629C709.227 140.906 712.595 136.953 714.601 132.285L736.328 132.23Z" fill="black"></path>
<path d="M761.604 127.199C762.566 141.473 775.355 149.449 787.401 149.202C791.747 149.428 796.068 148.419 799.865 146.292C803.661 144.165 806.778 141.007 808.854 137.183H830.857C827.167 146.245 820.904 154.028 812.841 159.57C805.363 164.743 796.467 167.472 787.374 167.381C775.019 167.13 763.251 162.056 754.587 153.244C745.922 144.432 741.049 132.581 741.006 120.224C740.963 107.866 745.755 95.9811 754.357 87.1091C762.96 78.2371 774.691 73.0813 787.044 72.7435C793.235 72.6503 799.38 73.8219 805.102 76.1864C810.824 78.551 816.003 82.0588 820.323 86.495C825.509 91.809 829.395 98.2516 831.676 105.318C833.957 112.385 834.57 119.884 833.469 127.227L761.604 127.199ZM812.402 110.973C811.605 102.529 802.666 90.6755 787.099 90.8405C771.532 91.0056 762.731 102.199 761.934 110.973H812.402Z" fill="black"></path>
<path d="M466.978 235.689C466.818 235.541 466.608 235.459 466.391 235.459C466.174 235.459 465.965 235.541 465.805 235.689C464.794 236.885 463.539 237.844 462.127 238.501C460.714 239.157 459.178 239.495 457.623 239.491C456.251 239.47 454.897 239.17 453.642 238.608C452.387 238.046 451.256 237.233 450.318 236.22C449.379 235.206 448.652 234.012 448.179 232.707C447.706 231.403 447.497 230.015 447.564 228.628C447.496 227.248 447.706 225.869 448.181 224.574C448.656 223.279 449.386 222.095 450.327 221.095C451.268 220.094 452.4 219.298 453.654 218.755C454.908 218.211 456.259 217.932 457.623 217.934C459.131 217.924 460.625 218.237 462.005 218.851C463.386 219.465 464.624 220.367 465.637 221.498C465.712 221.58 465.803 221.644 465.904 221.688C466.005 221.733 466.114 221.756 466.224 221.756C466.334 221.756 466.442 221.733 466.543 221.688C466.644 221.644 466.735 221.58 466.81 221.498L468.185 220.106C468.33 219.936 468.413 219.72 468.42 219.495C468.418 219.38 468.394 219.267 468.348 219.162C468.302 219.057 468.235 218.962 468.152 218.884C466.788 217.473 465.153 216.359 463.348 215.612C461.543 214.865 459.606 214.5 457.657 214.539C455.826 214.551 454.016 214.936 452.334 215.67C450.652 216.403 449.133 217.472 447.867 218.811C446.6 220.15 445.612 221.733 444.961 223.466C444.311 225.199 444.01 227.046 444.077 228.899C444.005 230.728 444.298 232.552 444.94 234.263C445.581 235.973 446.558 237.535 447.811 238.854C449.063 240.173 450.566 241.223 452.23 241.939C453.893 242.655 455.682 243.023 457.489 243.022C459.499 243.039 461.491 242.629 463.333 241.816C465.176 241.003 466.829 239.806 468.185 238.303C468.271 238.227 468.339 238.132 468.386 238.027C468.433 237.922 468.458 237.808 468.458 237.692C468.458 237.576 468.433 237.462 468.386 237.357C468.339 237.251 468.271 237.157 468.185 237.081L466.978 235.689Z" fill="black"></path>
<path d="M522.84 215.32C522.777 215.173 522.674 215.048 522.543 214.957C522.413 214.867 522.26 214.816 522.102 214.81H520.258C520.1 214.816 519.947 214.867 519.816 214.957C519.686 215.048 519.583 215.173 519.52 215.32L507.785 241.392C507.72 241.518 507.686 241.658 507.686 241.8C507.686 241.941 507.72 242.081 507.785 242.207C507.864 242.321 507.97 242.415 508.092 242.48C508.215 242.545 508.351 242.579 508.489 242.581H510.467C510.626 242.58 510.782 242.535 510.918 242.452C511.054 242.368 511.165 242.248 511.238 242.105L514.256 235.316H528.204L531.222 242.105C531.296 242.248 531.406 242.368 531.542 242.452C531.678 242.535 531.834 242.58 531.993 242.581H534.072C534.21 242.579 534.346 242.545 534.469 242.48C534.591 242.415 534.697 242.321 534.776 242.207C534.841 242.081 534.875 241.941 534.875 241.8C534.875 241.658 534.841 241.518 534.776 241.392L522.84 215.32ZM515.698 231.853L521.13 219.835L526.528 231.853H515.698Z" fill="black"></path>
<path d="M583.931 214.98H574.845C574.622 214.98 574.409 215.07 574.252 215.229C574.095 215.388 574.006 215.604 574.006 215.829V241.63C574.006 241.855 574.095 242.071 574.252 242.23C574.409 242.389 574.622 242.479 574.845 242.479H576.756C576.978 242.479 577.191 242.389 577.349 242.23C577.506 242.071 577.594 241.855 577.594 241.63V232.871H583.629C590.067 232.871 594.393 229.205 594.393 223.705C594.393 218.205 590.201 214.98 583.931 214.98ZM583.562 229.409H577.426V218.443H583.797C585.842 218.443 590.671 218.986 590.671 223.909C590.671 227.236 587.888 229.409 583.562 229.409Z" fill="black"></path>
<path d="M636.003 214.98H634.125C633.662 214.98 633.287 215.36 633.287 215.829V241.63C633.287 242.099 633.662 242.479 634.125 242.479H636.003C636.466 242.479 636.841 242.099 636.841 241.63V215.829C636.841 215.36 636.466 214.98 636.003 214.98Z" fill="black"></path>
<path d="M696.391 214.98H676.708C676.486 214.98 676.273 215.07 676.116 215.229C675.958 215.388 675.87 215.604 675.87 215.829V217.594C675.87 217.819 675.958 218.035 676.116 218.195C676.273 218.354 676.486 218.443 676.708 218.443H684.756V241.63C684.756 241.855 684.844 242.071 685.001 242.23C685.158 242.389 685.372 242.479 685.594 242.479H687.505C687.727 242.479 687.941 242.389 688.098 242.23C688.255 242.071 688.343 241.855 688.343 241.63V218.443H696.391C696.613 218.443 696.826 218.354 696.983 218.195C697.14 218.035 697.229 217.819 697.229 217.594V215.829C697.229 215.604 697.14 215.388 696.983 215.229C696.826 215.07 696.613 214.98 696.391 214.98Z" fill="black"></path>
<path d="M751.548 215.32C751.485 215.173 751.382 215.048 751.251 214.957C751.121 214.867 750.968 214.816 750.81 214.81H748.966C748.807 214.812 748.652 214.861 748.521 214.952C748.39 215.043 748.288 215.171 748.228 215.32L736.325 241.324C736.269 241.454 736.246 241.595 736.258 241.736C736.27 241.876 736.316 242.012 736.393 242.13C736.469 242.248 736.574 242.345 736.697 242.412C736.82 242.478 736.957 242.513 737.096 242.513H739.142C739.301 242.512 739.457 242.468 739.593 242.384C739.729 242.3 739.839 242.18 739.913 242.037L742.931 235.248H756.879L759.897 242.037C759.97 242.18 760.081 242.3 760.217 242.384C760.353 242.468 760.509 242.512 760.668 242.513H762.613C762.751 242.511 762.887 242.477 763.009 242.412C763.132 242.347 763.237 242.254 763.317 242.139C763.381 242.013 763.415 241.874 763.415 241.732C763.415 241.59 763.381 241.45 763.317 241.324L751.548 215.32ZM744.406 231.853L749.838 219.835L755.236 231.853H744.406Z" fill="black"></path>
<path d="M820.251 239.084H806.201V215.897C806.201 215.672 806.113 215.456 805.956 215.297C805.799 215.138 805.586 215.048 805.363 215.048H803.486C803.263 215.048 803.05 215.138 802.893 215.297C802.736 215.456 802.647 215.672 802.647 215.897V241.698C802.647 241.923 802.736 242.139 802.893 242.298C803.05 242.457 803.263 242.547 803.486 242.547H820.251C820.473 242.547 820.686 242.457 820.843 242.298C821 242.139 821.089 241.923 821.089 241.698V239.933C821.089 239.708 821 239.492 820.843 239.333C820.686 239.173 820.473 239.084 820.251 239.084Z" fill="black"></path>
<rect x="141.745" y="0.858398" width="3.35131" height="222.149" transform="rotate(18.9501 141.745 0.858398)" fill="url(#paint0_linear_80_82)"></rect>
<defs>
<linearGradient id="paint0_linear_80_82" x1="143.421" y1="0.858398" x2="143.421" y2="223.008" gradientUnits="userSpaceOnUse">
<stop offset="0.15625" stop-color="white" stop-opacity="0"></stop>
<stop offset="0.433345"></stop>
<stop offset="0.489583"></stop>
<stop offset="0.875" stop-color="white" stop-opacity="0"></stop>
</linearGradient>
</defs>
</svg>