<svg width="834" height="243" viewBox="0 0 834 243" fill="none" xmlns="http://www.w3.org/2000/svg">
<path d="M0 44.4361H63.8343V65.6959H24.2303V94.4365H62.7345V115.696H24.2303V164.432H0.0268581L0 44.4361Z" fill="#D9B477"></path>
<path d="M162.34 164.432H136.049L184.728 44.3262H206.016L253.569 164.432H227.111L218.337 140.917H170.95L162.34 164.432ZM194.327 72.9017L177.275 121.582H211.846L194.327 72.9017Z" fill="#D9B477"></path>
<path d="M350.131 164.432H329.861V151.615C325.956 158.271 317.512 167.209 299.333 167.209C271.83 167.209 254.201 145.785 254.201 119.794C254.201 90.9162 274.829 72.5716 299.004 72.5716C316.056 72.5716 325.626 81.6476 328.872 86.8457V44.4361H350.131V164.432ZM275.461 119.794C275.336 123.421 275.954 127.035 277.278 130.414C278.602 133.793 280.603 136.865 283.159 139.441C285.714 142.018 288.771 144.044 292.139 145.395C295.507 146.746 299.116 147.393 302.744 147.297C306.417 147.318 310.056 146.612 313.455 145.22C316.854 143.827 319.943 141.776 322.545 139.184C327.5 133.886 330.23 126.886 330.169 119.632C330.108 112.378 327.26 105.426 322.216 100.212C319.677 97.7125 316.669 95.7382 313.365 94.4026C310.061 93.067 306.527 92.3963 302.964 92.4289C299.342 92.3119 295.734 92.9351 292.36 94.2603C288.987 95.5854 285.918 97.5846 283.344 100.136C280.77 102.687 278.744 105.736 277.388 109.098C276.033 112.459 275.377 116.061 275.461 119.684V119.794Z" fill="#D9B477"></path>
<path d="M410.528 164.431H389.791L356.787 75.3216H378.789L400.214 137.671L421.639 75.3216H443.642L410.528 164.431Z" fill="#D9B477"></path>
<path d="M536.795 164.431H515.535V151.614C509.869 162.011 498.014 167.209 485.5 167.209C456.952 167.209 440.231 144.959 440.231 119.793C440.231 91.7128 460.5 72.5706 485.5 72.5706C501.755 72.5706 511.657 81.1792 515.535 88.3024V75.3209H536.795V164.431ZM461.49 120.426C461.49 131.427 469.439 147.544 488.581 147.544C493.496 147.728 498.359 146.473 502.57 143.933C506.782 141.392 510.16 137.676 512.289 133.242C514.308 129.373 515.47 125.114 515.699 120.756C515.861 116.454 515.033 112.173 513.279 108.242C511.197 103.446 507.728 99.3845 503.316 96.5804C498.903 93.7762 493.752 92.3585 488.526 92.5103C471.309 92.5103 461.574 106.454 461.574 120.261L461.49 120.426Z" fill="#D9B477"></path>
<path d="M551.397 75.4342H571.31C571.31 79.3396 571.31 83.08 571.145 87.2879C575.051 80.3022 582.999 72.5188 598.923 72.6839C627.966 72.8489 633.494 95.0713 633.494 110.83V164.434H612.234V116.194C612.234 102.882 607.834 92.6511 592.982 92.6511C578.131 92.6511 572.712 102.882 572.712 115.368V164.434H551.426L551.397 75.4342Z" fill="#D9B477"></path>
<path d="M736.328 132.088C733.46 143.334 726.584 153.146 716.993 159.682C707.401 166.217 695.755 169.026 684.239 167.581C672.723 166.136 662.131 160.536 654.452 151.833C646.773 143.13 642.535 131.923 642.535 120.317C642.535 108.71 646.773 97.5032 654.452 88.8003C662.131 80.0974 672.723 74.4975 684.239 73.0522C695.755 71.6069 707.401 74.4156 716.993 80.9511C726.584 87.4865 733.46 97.2988 736.328 108.545H714.601C712.893 104.581 710.244 101.092 706.885 98.381C703.525 95.6702 699.554 93.819 695.318 92.9875C691.082 92.156 686.708 92.3691 682.573 93.6087C678.437 94.8484 674.666 97.077 671.586 100.102C666.748 105.55 664.136 112.619 664.27 119.904C664.27 135.993 675.464 147.407 690.563 147.407C695.64 147.576 700.65 146.21 704.939 143.487C709.227 140.764 712.595 136.81 714.601 132.143L736.328 132.088Z" fill="#D9B477"></path>
<path d="M761.604 127.057C762.566 141.331 775.355 149.307 787.401 149.059C791.747 149.285 796.068 148.277 799.865 146.15C803.661 144.023 806.778 140.865 808.854 137.04H830.857C827.167 146.102 820.904 153.885 812.841 159.428C805.363 164.6 796.467 167.329 787.374 167.239C775.019 166.987 763.251 161.913 754.587 153.102C745.922 144.29 741.049 132.439 741.006 120.081C740.963 107.723 745.755 95.8385 754.357 86.9665C762.96 78.0945 774.691 72.9388 787.044 72.6009C793.235 72.5077 799.38 73.6793 805.102 76.0439C810.824 78.4084 816.003 81.9162 820.323 86.3524C825.509 91.6665 829.395 98.109 831.676 105.176C833.957 112.242 834.57 119.741 833.469 127.084L761.604 127.057ZM812.402 110.83C811.605 102.387 802.666 90.5329 787.099 90.698C771.532 90.863 762.731 102.057 761.934 110.83H812.402Z" fill="#D9B477"></path>
<path d="M466.978 235.546C466.818 235.398 466.608 235.317 466.391 235.317C466.174 235.317 465.965 235.398 465.805 235.546C464.794 236.742 463.539 237.702 462.127 238.358C460.714 239.015 459.178 239.353 457.623 239.349C456.251 239.327 454.897 239.027 453.642 238.465C452.387 237.903 451.256 237.091 450.318 236.077C449.379 235.064 448.652 233.869 448.179 232.565C447.706 231.26 447.497 229.873 447.564 228.485C447.496 227.105 447.706 225.726 448.181 224.431C448.656 223.136 449.386 221.952 450.327 220.952C451.268 219.952 452.4 219.156 453.654 218.612C454.908 218.069 456.259 217.79 457.623 217.791C459.131 217.782 460.625 218.094 462.005 218.709C463.386 219.323 464.624 220.225 465.637 221.356C465.712 221.437 465.803 221.502 465.904 221.546C466.005 221.59 466.114 221.613 466.224 221.613C466.334 221.613 466.442 221.59 466.543 221.546C466.644 221.502 466.735 221.437 466.81 221.356L468.185 219.964C468.33 219.793 468.413 219.578 468.42 219.353C468.418 219.238 468.394 219.124 468.348 219.019C468.302 218.914 468.235 218.82 468.152 218.742C466.788 217.33 465.153 216.217 463.348 215.47C461.543 214.722 459.606 214.357 457.657 214.396C455.826 214.409 454.016 214.793 452.334 215.527C450.652 216.261 449.133 217.329 447.867 218.668C446.6 220.007 445.612 221.59 444.961 223.323C444.311 225.056 444.01 226.904 444.077 228.757C444.005 230.585 444.298 232.409 444.94 234.12C445.581 235.831 446.558 237.393 447.811 238.712C449.063 240.031 450.566 241.08 452.23 241.796C453.893 242.512 455.682 242.881 457.489 242.879C459.499 242.897 461.491 242.486 463.333 241.673C465.176 240.86 466.829 239.663 468.185 238.16C468.271 238.084 468.339 237.99 468.386 237.884C468.433 237.779 468.458 237.665 468.458 237.549C468.458 237.434 468.433 237.319 468.386 237.214C468.339 237.109 468.271 237.015 468.185 236.938L466.978 235.546Z" fill="#D9B477"></path>
<path d="M522.84 215.177C522.777 215.031 522.674 214.905 522.543 214.815C522.413 214.725 522.26 214.674 522.102 214.668H520.258C520.1 214.674 519.947 214.725 519.816 214.815C519.686 214.905 519.583 215.031 519.52 215.177L507.785 241.25C507.72 241.376 507.686 241.515 507.686 241.657C507.686 241.799 507.72 241.939 507.785 242.064C507.864 242.179 507.97 242.272 508.092 242.337C508.215 242.402 508.351 242.437 508.489 242.438H510.467C510.626 242.438 510.782 242.393 510.918 242.309C511.054 242.225 511.165 242.106 511.238 241.963L514.256 235.173H528.204L531.222 241.963C531.296 242.106 531.406 242.225 531.542 242.309C531.678 242.393 531.834 242.438 531.993 242.438H534.072C534.21 242.437 534.346 242.402 534.469 242.337C534.591 242.272 534.697 242.179 534.776 242.064C534.841 241.939 534.875 241.799 534.875 241.657C534.875 241.515 534.841 241.376 534.776 241.25L522.84 215.177ZM515.698 231.71L521.13 219.692L526.528 231.71H515.698Z" fill="#D9B477"></path>
<path d="M583.931 214.838H574.845C574.622 214.838 574.409 214.927 574.252 215.086C574.095 215.245 574.006 215.461 574.006 215.687V241.487C574.006 241.712 574.095 241.928 574.252 242.087C574.409 242.247 574.622 242.336 574.845 242.336H576.756C576.978 242.336 577.191 242.247 577.349 242.087C577.506 241.928 577.594 241.712 577.594 241.487V232.729H583.629C590.067 232.729 594.393 229.062 594.393 223.562C594.393 218.063 590.201 214.838 583.931 214.838ZM583.562 229.266H577.426V218.3H583.797C585.842 218.3 590.671 218.844 590.671 223.766C590.671 227.093 587.888 229.266 583.562 229.266Z" fill="#D9B477"></path>
<path d="M636.003 214.838H634.125C633.662 214.838 633.287 215.218 633.287 215.686V241.487C633.287 241.956 633.662 242.336 634.125 242.336H636.003C636.466 242.336 636.841 241.956 636.841 241.487V215.686C636.841 215.218 636.466 214.838 636.003 214.838Z" fill="#D9B477"></path>
<path d="M696.391 214.838H676.708C676.486 214.838 676.273 214.927 676.116 215.086C675.958 215.245 675.87 215.461 675.87 215.687V217.452C675.87 217.677 675.958 217.893 676.116 218.052C676.273 218.211 676.486 218.3 676.708 218.3H684.756V241.487C684.756 241.712 684.844 241.928 685.001 242.087C685.158 242.247 685.372 242.336 685.594 242.336H687.505C687.727 242.336 687.941 242.247 688.098 242.087C688.255 241.928 688.343 241.712 688.343 241.487V218.3H696.391C696.613 218.3 696.826 218.211 696.983 218.052C697.14 217.893 697.229 217.677 697.229 217.452V215.687C697.229 215.461 697.14 215.245 696.983 215.086C696.826 214.927 696.613 214.838 696.391 214.838Z" fill="#D9B477"></path>
<path d="M751.548 215.177C751.485 215.031 751.382 214.905 751.251 214.815C751.121 214.725 750.968 214.674 750.81 214.668H748.966C748.807 214.67 748.652 214.719 748.521 214.809C748.39 214.9 748.288 215.028 748.228 215.177L736.325 241.182C736.269 241.311 736.246 241.453 736.258 241.593C736.27 241.734 736.316 241.869 736.393 241.987C736.469 242.105 736.574 242.202 736.697 242.269C736.82 242.336 736.957 242.371 737.096 242.37H739.142C739.301 242.37 739.457 242.325 739.593 242.241C739.729 242.158 739.839 242.038 739.913 241.895L742.931 235.105H756.879L759.897 241.895C759.97 242.038 760.081 242.158 760.217 242.241C760.353 242.325 760.509 242.37 760.668 242.37H762.613C762.751 242.369 762.887 242.334 763.009 242.269C763.132 242.204 763.237 242.111 763.317 241.997C763.381 241.871 763.415 241.731 763.415 241.589C763.415 241.447 763.381 241.308 763.317 241.182L751.548 215.177ZM744.406 231.71L749.838 219.692L755.236 231.71H744.406Z" fill="#D9B477"></path>
<path d="M820.251 238.941H806.201V215.754C806.201 215.529 806.113 215.314 805.956 215.154C805.799 214.995 805.586 214.906 805.363 214.906H803.486C803.263 214.906 803.05 214.995 802.893 215.154C802.736 215.314 802.647 215.529 802.647 215.754V241.555C802.647 241.781 802.736 241.996 802.893 242.156C803.05 242.315 803.263 242.404 803.486 242.404H820.251C820.473 242.404 820.686 242.315 820.843 242.156C821 241.996 821.089 241.781 821.089 241.555V239.79C821.089 239.565 821 239.349 820.843 239.19C820.686 239.031 820.473 238.941 820.251 238.941Z" fill="#D9B477"></path>
<rect x="141.745" y="0.71582" width="3.35131" height="222.149" transform="rotate(18.9501 141.745 0.71582)" fill="url(#paint0_linear_80_86)"></rect>
<defs>
<linearGradient id="paint0_linear_80_86" x1="143.421" y1="0.71582" x2="143.421" y2="222.865" gradientUnits="userSpaceOnUse">
<stop offset="0.15625" stop-color="white" stop-opacity="0"></stop>
<stop offset="0.433345" stop-color="#D9B477"></stop>
<stop offset="0.456179" stop-color="#D9B477"></stop>
<stop offset="0.875" stop-color="white" stop-opacity="0"></stop>
</linearGradient>
</defs>
</svg>