<svg width="834" height="212" viewBox="0 0 834 212" fill="none" xmlns="http://www.w3.org/2000/svg">
<path d="M0 43.7203H63.8343V64.98H24.2303V93.7207H62.7345V114.981H24.2303V163.716H0.0268581L0 43.7203Z" fill="#1a1f1c"></path>
<path d="M162.34 163.716H136.049L184.728 43.6104H206.016L253.569 163.716H227.111L218.337 140.201H170.95L162.34 163.716ZM194.327 72.1858L177.275 120.866H211.846L194.327 72.1858Z" fill="#1a1f1c"></path>
<path d="M350.131 163.716H329.861V150.9C325.956 157.555 317.512 166.494 299.333 166.494C271.83 166.494 254.201 145.069 254.201 119.079C254.201 90.2004 274.829 71.8558 299.004 71.8558C316.056 71.8558 325.626 80.9318 328.872 86.1299V43.7203H350.131V163.716ZM275.461 119.079C275.336 122.705 275.954 126.319 277.278 129.698C278.602 133.077 280.603 136.149 283.159 138.725C285.714 141.302 288.771 143.328 292.139 144.679C295.507 146.03 299.116 146.678 302.744 146.582C306.417 146.603 310.056 145.897 313.455 144.504C316.854 143.112 319.943 141.06 322.545 138.468C327.5 133.17 330.23 126.17 330.169 118.916C330.108 111.662 327.26 104.71 322.216 99.4964C319.677 96.9967 316.669 95.0224 313.365 93.6868C310.061 92.3512 306.527 91.6805 302.964 91.713C299.342 91.5961 295.734 92.2193 292.36 93.5444C288.987 94.8696 285.918 96.8688 283.344 99.4199C280.77 101.971 278.744 105.02 277.388 108.382C276.033 111.743 275.377 115.345 275.461 118.968V119.079Z" fill="#1a1f1c"></path>
<path d="M410.528 163.716H389.791L356.787 74.6058H378.789L400.214 136.955L421.639 74.6058H443.642L410.528 163.716Z" fill="#1a1f1c"></path>
<path d="M536.795 163.715H515.535V150.899C509.869 161.295 498.014 166.493 485.5 166.493C456.952 166.493 440.231 144.243 440.231 119.078C440.231 90.997 460.5 71.8548 485.5 71.8548C501.755 71.8548 511.657 80.4633 515.535 87.5866V74.6051H536.795V163.715ZM461.49 119.71C461.49 130.711 469.439 146.828 488.581 146.828C493.496 147.013 498.359 145.757 502.57 143.217C506.782 140.676 510.16 136.96 512.289 132.526C514.308 128.657 515.47 124.399 515.699 120.04C515.861 115.739 515.033 111.457 513.279 107.526C511.197 102.731 507.728 98.6687 503.316 95.8645C498.903 93.0604 493.752 91.6427 488.526 91.7945C471.309 91.7945 461.574 105.739 461.574 119.545L461.49 119.71Z" fill="#1a1f1c"></path>
<path d="M551.397 74.7183H571.31C571.31 78.6238 571.31 82.3642 571.145 86.5721C575.051 79.5864 582.999 71.803 598.923 71.968C627.966 72.1331 633.494 94.3555 633.494 110.115V163.718H612.234V115.478C612.234 102.166 607.834 91.9352 592.982 91.9352C578.131 91.9352 572.712 102.166 572.712 114.653V163.718H551.426L551.397 74.7183Z" fill="#1a1f1c"></path>
<path d="M736.328 131.372C733.46 142.618 726.584 152.431 716.993 158.966C707.401 165.502 695.755 168.31 684.239 166.865C672.723 165.42 662.131 159.82 654.452 151.117C646.773 142.414 642.535 131.207 642.535 119.601C642.535 107.994 646.773 96.7873 654.452 88.0844C662.131 79.3815 672.723 73.7816 684.239 72.3364C695.755 70.8911 707.401 73.6998 716.993 80.2352C726.584 86.7707 733.46 96.583 736.328 107.829H714.601C712.893 103.865 710.244 100.376 706.885 97.6652C703.525 94.9543 699.554 93.1032 695.318 92.2717C691.082 91.4401 686.708 91.6533 682.573 92.8929C678.437 94.1326 674.666 96.3612 671.586 99.3859C666.748 104.834 664.136 111.903 664.27 119.188C664.27 135.277 675.464 146.691 690.563 146.691C695.64 146.86 700.65 145.494 704.939 142.771C709.227 140.048 712.595 136.094 714.601 131.427L736.328 131.372Z" fill="#1a1f1c"></path>
<path d="M761.604 126.341C762.566 140.615 775.355 148.591 787.401 148.343C791.747 148.57 796.068 147.561 799.865 145.434C803.661 143.307 806.778 140.149 808.854 136.325H830.857C827.167 145.387 820.904 153.169 812.841 158.712C805.363 163.884 796.467 166.613 787.374 166.523C775.019 166.271 763.251 161.198 754.587 152.386C745.922 143.574 741.049 131.723 741.006 119.365C740.963 107.007 745.755 95.1227 754.357 86.2507C762.96 77.3787 774.691 72.2229 787.044 71.8851C793.235 71.7919 799.38 72.9635 805.102 75.328C810.824 77.6926 816.003 81.2004 820.323 85.6366C825.509 90.9506 829.395 97.3932 831.676 104.46C833.957 111.526 834.57 119.025 833.469 126.369L761.604 126.341ZM812.402 110.114C811.605 101.671 802.666 89.8171 787.099 89.9821C771.532 90.1472 762.731 101.341 761.934 110.114H812.402Z" fill="#1a1f1c"></path>
<rect x="141.745" width="3.35131" height="222.149" transform="rotate(18.9501 141.745 0)" fill="url(#paint0_linear_16_803)"></rect>
<defs>
<linearGradient id="paint0_linear_16_803" x1="143.421" y1="0" x2="143.421" y2="222.149" gradientUnits="userSpaceOnUse">
<stop offset="0.15625" stop-color="#1a1f1c" stop-opacity="0"></stop>
<stop offset="0.433345" stop-color="#1a1f1c"></stop>
<stop offset="0.536458" stop-color="#1a1f1c"></stop>
<stop offset="0.875" stop-color="#1a1f1c" stop-opacity="0"></stop>
</linearGradient>
</defs>
</svg>