<svg width="834" height="243" viewBox="0 0 834 243" fill="none" xmlns="http://www.w3.org/2000/svg">
<path d="M0 43.7203H63.8343V64.98H24.2303V93.7207H62.7345V114.981H24.2303V163.716H0.0268581L0 43.7203Z" fill="white"></path>
<path d="M162.34 163.716H136.049L184.728 43.6104H206.016L253.569 163.716H227.111L218.337 140.201H170.95L162.34 163.716ZM194.327 72.1858L177.275 120.866H211.846L194.327 72.1858Z" fill="white"></path>
<path d="M350.131 163.716H329.861V150.9C325.956 157.555 317.512 166.494 299.333 166.494C271.83 166.494 254.201 145.069 254.201 119.079C254.201 90.2004 274.829 71.8558 299.004 71.8558C316.056 71.8558 325.626 80.9318 328.872 86.1299V43.7203H350.131V163.716ZM275.461 119.079C275.336 122.705 275.954 126.319 277.278 129.698C278.602 133.077 280.603 136.149 283.159 138.725C285.714 141.302 288.771 143.328 292.139 144.679C295.507 146.03 299.116 146.678 302.744 146.582C306.417 146.603 310.056 145.897 313.455 144.504C316.854 143.112 319.943 141.06 322.545 138.468C327.5 133.17 330.23 126.17 330.169 118.916C330.108 111.662 327.26 104.71 322.216 99.4964C319.677 96.9967 316.669 95.0224 313.365 93.6868C310.061 92.3512 306.527 91.6805 302.964 91.713C299.342 91.5961 295.734 92.2193 292.36 93.5444C288.987 94.8696 285.918 96.8688 283.344 99.4199C280.77 101.971 278.744 105.02 277.388 108.382C276.033 111.743 275.377 115.345 275.461 118.968V119.079Z" fill="white"></path>
<path d="M410.528 163.716H389.791L356.787 74.6058H378.789L400.214 136.955L421.639 74.6058H443.642L410.528 163.716Z" fill="white"></path>
<path d="M536.795 163.715H515.535V150.899C509.869 161.295 498.014 166.493 485.5 166.493C456.952 166.493 440.231 144.243 440.231 119.078C440.231 90.997 460.5 71.8548 485.5 71.8548C501.755 71.8548 511.657 80.4633 515.535 87.5866V74.6051H536.795V163.715ZM461.49 119.71C461.49 130.711 469.439 146.828 488.581 146.828C493.496 147.013 498.359 145.757 502.57 143.217C506.782 140.676 510.16 136.96 512.289 132.526C514.308 128.657 515.47 124.399 515.699 120.04C515.861 115.739 515.033 111.457 513.279 107.526C511.197 102.731 507.728 98.6687 503.316 95.8645C498.903 93.0604 493.752 91.6427 488.526 91.7945C471.309 91.7945 461.574 105.739 461.574 119.545L461.49 119.71Z" fill="white"></path>
<path d="M551.397 74.7183H571.31C571.31 78.6238 571.31 82.3642 571.145 86.5721C575.051 79.5864 582.999 71.803 598.923 71.968C627.966 72.1331 633.494 94.3555 633.494 110.115V163.718H612.234V115.478C612.234 102.166 607.834 91.9352 592.982 91.9352C578.131 91.9352 572.712 102.166 572.712 114.653V163.718H551.426L551.397 74.7183Z" fill="white"></path>
<path d="M736.328 131.372C733.46 142.618 726.584 152.431 716.993 158.966C707.401 165.502 695.755 168.31 684.239 166.865C672.723 165.42 662.131 159.82 654.452 151.117C646.773 142.414 642.535 131.207 642.535 119.601C642.535 107.994 646.773 96.7873 654.452 88.0844C662.131 79.3815 672.723 73.7816 684.239 72.3364C695.755 70.8911 707.401 73.6998 716.993 80.2352C726.584 86.7707 733.46 96.583 736.328 107.829H714.601C712.893 103.865 710.244 100.376 706.885 97.6652C703.525 94.9543 699.554 93.1032 695.318 92.2717C691.082 91.4401 686.708 91.6533 682.573 92.8929C678.437 94.1326 674.666 96.3612 671.586 99.3859C666.748 104.834 664.136 111.903 664.27 119.188C664.27 135.277 675.464 146.691 690.563 146.691C695.64 146.86 700.65 145.494 704.939 142.771C709.227 140.048 712.595 136.094 714.601 131.427L736.328 131.372Z" fill="white"></path>
<path d="M761.604 126.341C762.566 140.615 775.355 148.591 787.401 148.343C791.747 148.57 796.068 147.561 799.865 145.434C803.661 143.307 806.778 140.149 808.854 136.325H830.857C827.167 145.387 820.904 153.169 812.841 158.712C805.363 163.884 796.467 166.613 787.374 166.523C775.019 166.271 763.251 161.198 754.587 152.386C745.922 143.574 741.049 131.723 741.006 119.365C740.963 107.007 745.755 95.1227 754.357 86.2507C762.96 77.3787 774.691 72.2229 787.044 71.8851C793.235 71.7919 799.38 72.9635 805.102 75.328C810.824 77.6926 816.003 81.2004 820.323 85.6366C825.509 90.9506 829.395 97.3932 831.676 104.46C833.957 111.526 834.57 119.025 833.469 126.369L761.604 126.341ZM812.402 110.114C811.605 101.671 802.666 89.8171 787.099 89.9821C771.532 90.1472 762.731 101.341 761.934 110.114H812.402Z" fill="white"></path>
<path d="M466.978 234.831C466.818 234.683 466.608 234.601 466.391 234.601C466.174 234.601 465.965 234.683 465.805 234.831C464.794 236.026 463.539 236.986 462.127 237.642C460.714 238.299 459.178 238.637 457.623 238.633C456.251 238.612 454.897 238.311 453.642 237.749C452.387 237.187 451.256 236.375 450.318 235.361C449.379 234.348 448.652 233.153 448.179 231.849C447.706 230.544 447.497 229.157 447.564 227.769C447.496 226.389 447.706 225.01 448.181 223.715C448.656 222.42 449.386 221.237 450.327 220.236C451.268 219.236 452.4 218.44 453.654 217.896C454.908 217.353 456.259 217.074 457.623 217.075C459.131 217.066 460.625 217.379 462.005 217.993C463.386 218.607 464.624 219.509 465.637 220.64C465.712 220.721 465.803 220.786 465.904 220.83C466.005 220.874 466.114 220.897 466.224 220.897C466.334 220.897 466.442 220.874 466.543 220.83C466.644 220.786 466.735 220.721 466.81 220.64L468.185 219.248C468.33 219.077 468.413 218.862 468.42 218.637C468.418 218.522 468.394 218.409 468.348 218.304C468.302 218.199 468.235 218.104 468.152 218.026C466.788 216.615 465.153 215.501 463.348 214.754C461.543 214.006 459.606 213.641 457.657 213.681C455.826 213.693 454.016 214.077 452.334 214.811C450.652 215.545 449.133 216.613 447.867 217.952C446.6 219.292 445.612 220.875 444.961 222.607C444.311 224.34 444.01 226.188 444.077 228.041C444.005 229.869 444.298 231.694 444.94 233.404C445.581 235.115 446.558 236.677 447.811 237.996C449.063 239.315 450.566 240.364 452.23 241.08C453.893 241.796 455.682 242.165 457.489 242.163C459.499 242.181 461.491 241.77 463.333 240.957C465.176 240.144 466.829 238.947 468.185 237.445C468.271 237.368 468.339 237.274 468.386 237.169C468.433 237.063 468.458 236.949 468.458 236.834C468.458 236.718 468.433 236.604 468.386 236.498C468.339 236.393 468.271 236.299 468.185 236.222L466.978 234.831Z" fill="white"></path>
<path d="M522.84 214.461C522.777 214.315 522.674 214.189 522.543 214.099C522.413 214.009 522.26 213.958 522.102 213.952H520.258C520.1 213.958 519.947 214.009 519.816 214.099C519.686 214.189 519.583 214.315 519.52 214.461L507.785 240.534C507.72 240.66 507.686 240.799 507.686 240.941C507.686 241.083 507.72 241.223 507.785 241.349C507.864 241.463 507.97 241.556 508.092 241.621C508.215 241.686 508.351 241.721 508.489 241.722H510.467C510.626 241.722 510.782 241.677 510.918 241.593C511.054 241.51 511.165 241.39 511.238 241.247L514.256 234.457H528.204L531.222 241.247C531.296 241.39 531.406 241.51 531.542 241.593C531.678 241.677 531.834 241.722 531.993 241.722H534.072C534.21 241.721 534.346 241.686 534.469 241.621C534.591 241.556 534.697 241.463 534.776 241.349C534.841 241.223 534.875 241.083 534.875 240.941C534.875 240.799 534.841 240.66 534.776 240.534L522.84 214.461ZM515.698 230.994L521.13 218.977L526.528 230.994H515.698Z" fill="white"></path>
<path d="M583.931 214.122H574.845C574.622 214.122 574.409 214.211 574.252 214.37C574.095 214.53 574.006 214.746 574.006 214.971V240.772C574.006 240.997 574.095 241.212 574.252 241.372C574.409 241.531 574.622 241.62 574.845 241.62H576.756C576.978 241.62 577.191 241.531 577.349 241.372C577.506 241.212 577.594 240.997 577.594 240.772V232.013H583.629C590.067 232.013 594.393 228.346 594.393 222.847C594.393 217.347 590.201 214.122 583.931 214.122ZM583.562 228.55H577.426V217.585H583.797C585.842 217.585 590.671 218.128 590.671 223.05C590.671 226.377 587.888 228.55 583.562 228.55Z" fill="white"></path>
<path d="M636.003 214.122H634.125C633.662 214.122 633.287 214.502 633.287 214.971V240.772C633.287 241.24 633.662 241.62 634.125 241.62H636.003C636.466 241.62 636.841 241.24 636.841 240.772V214.971C636.841 214.502 636.466 214.122 636.003 214.122Z" fill="white"></path>
<path d="M696.391 214.122H676.708C676.486 214.122 676.273 214.211 676.116 214.37C675.958 214.53 675.87 214.746 675.87 214.971V216.736C675.87 216.961 675.958 217.177 676.116 217.336C676.273 217.495 676.486 217.585 676.708 217.585H684.756V240.772C684.756 240.997 684.844 241.212 685.001 241.372C685.158 241.531 685.372 241.62 685.594 241.62H687.505C687.727 241.62 687.941 241.531 688.098 241.372C688.255 241.212 688.343 240.997 688.343 240.772V217.585H696.391C696.613 217.585 696.826 217.495 696.983 217.336C697.14 217.177 697.229 216.961 697.229 216.736V214.971C697.229 214.746 697.14 214.53 696.983 214.37C696.826 214.211 696.613 214.122 696.391 214.122Z" fill="white"></path>
<path d="M751.548 214.461C751.485 214.315 751.382 214.189 751.251 214.099C751.121 214.009 750.968 213.958 750.81 213.952H748.966C748.807 213.954 748.652 214.003 748.521 214.094C748.39 214.184 748.288 214.312 748.228 214.461L736.325 240.466C736.269 240.595 736.246 240.737 736.258 240.877C736.27 241.018 736.316 241.154 736.393 241.272C736.469 241.39 736.574 241.486 736.697 241.553C736.82 241.62 736.957 241.655 737.096 241.654H739.142C739.301 241.654 739.457 241.609 739.593 241.526C739.729 241.442 739.839 241.322 739.913 241.179L742.931 234.389H756.879L759.897 241.179C759.97 241.322 760.081 241.442 760.217 241.526C760.353 241.609 760.509 241.654 760.668 241.654H762.613C762.751 241.653 762.887 241.618 763.009 241.554C763.132 241.489 763.237 241.395 763.317 241.281C763.381 241.155 763.415 241.015 763.415 240.873C763.415 240.732 763.381 240.592 763.317 240.466L751.548 214.461ZM744.406 230.994L749.838 218.977L755.236 230.994H744.406Z" fill="white"></path>
<path d="M820.251 238.226H806.201V215.039C806.201 214.813 806.113 214.598 805.956 214.439C805.799 214.279 805.586 214.19 805.363 214.19H803.486C803.263 214.19 803.05 214.279 802.893 214.439C802.736 214.598 802.647 214.813 802.647 215.039V240.84C802.647 241.065 802.736 241.281 802.893 241.44C803.05 241.599 803.263 241.688 803.486 241.688H820.251C820.473 241.688 820.686 241.599 820.843 241.44C821 241.281 821.089 241.065 821.089 240.84V239.074C821.089 238.849 821 238.633 820.843 238.474C820.686 238.315 820.473 238.226 820.251 238.226Z" fill="white"></path>
<rect x="141.745" width="3.35131" height="222.149" transform="rotate(18.9501 141.745 0)" fill="url(#paint0_linear_80_78)"></rect>
<defs>
<linearGradient id="paint0_linear_80_78" x1="143.421" y1="0" x2="143.421" y2="222.149" gradientUnits="userSpaceOnUse">
<stop offset="0.15625" stop-color="white" stop-opacity="0"></stop>
<stop offset="0.433345" stop-color="white"></stop>
<stop offset="0.536458" stop-color="white"></stop>
<stop offset="0.875" stop-color="white" stop-opacity="0"></stop>
</linearGradient>
</defs>
</svg>