<svg width="834" height="213" viewBox="0 0 834 213" fill="none" xmlns="http://www.w3.org/2000/svg">
<path d="M0 44.5787H63.8343V65.8384H24.2303V94.5791H62.7345V115.839H24.2303V164.574H0.0268581L0 44.5787Z" fill="black"></path>
<path d="M162.34 164.574H136.049L184.728 44.4688H206.016L253.569 164.574H227.111L218.337 141.059H170.95L162.34 164.574ZM194.327 73.0442L177.275 121.725H211.846L194.327 73.0442Z" fill="black"></path>
<path d="M350.131 164.574H329.861V151.758C325.956 158.414 317.512 167.352 299.333 167.352C271.83 167.352 254.201 145.927 254.201 119.937C254.201 91.0588 274.829 72.7142 299.004 72.7142C316.056 72.7142 325.626 81.7902 328.872 86.9883V44.5787H350.131V164.574ZM275.461 119.937C275.336 123.564 275.954 127.178 277.278 130.557C278.602 133.935 280.603 137.008 283.159 139.584C285.714 142.16 288.771 144.186 292.139 145.537C295.507 146.888 299.116 147.536 302.744 147.44C306.417 147.461 310.056 146.755 313.455 145.362C316.854 143.97 319.943 141.919 322.545 139.327C327.5 134.028 330.23 127.028 330.169 119.775C330.108 112.521 327.26 105.568 322.216 100.355C319.677 97.8551 316.669 95.8808 313.365 94.5452C310.061 93.2096 306.527 92.5389 302.964 92.5714C299.342 92.4545 295.734 93.0777 292.36 94.4028C288.987 95.728 285.918 97.7272 283.344 100.278C280.77 102.829 278.744 105.879 277.388 109.24C276.033 112.601 275.377 116.204 275.461 119.827V119.937Z" fill="black"></path>
<path d="M410.528 164.574H389.791L356.787 75.4642H378.789L400.214 137.814L421.639 75.4642H443.642L410.528 164.574Z" fill="black"></path>
<path d="M536.795 164.573H515.535V151.757C509.869 162.153 498.014 167.351 485.5 167.351C456.952 167.351 440.231 145.101 440.231 119.936C440.231 91.8554 460.5 72.7132 485.5 72.7132C501.755 72.7132 511.657 81.3217 515.535 88.445V75.4635H536.795V164.573ZM461.49 120.568C461.49 131.57 469.439 147.686 488.581 147.686C493.496 147.871 498.359 146.616 502.57 144.075C506.782 141.534 510.16 137.819 512.289 133.385C514.308 129.515 515.47 125.257 515.699 120.899C515.861 116.597 515.033 112.316 513.279 108.385C511.197 103.589 507.728 99.5271 503.316 96.7229C498.903 93.9188 493.752 92.5011 488.526 92.6529C471.309 92.6529 461.574 106.597 461.574 120.403L461.49 120.568Z" fill="black"></path>
<path d="M551.397 75.5767H571.31C571.31 79.4822 571.31 83.2226 571.145 87.4305C575.051 80.4448 582.999 72.6614 598.923 72.8264C627.966 72.9915 633.494 95.2139 633.494 110.973V164.576H612.234V116.336C612.234 103.025 607.834 92.7936 592.982 92.7936C578.131 92.7936 572.712 103.025 572.712 115.511V164.576H551.426L551.397 75.5767Z" fill="black"></path>
<path d="M736.328 132.23C733.46 143.477 726.584 153.289 716.993 159.824C707.401 166.36 695.755 169.169 684.239 167.724C672.723 166.278 662.131 160.678 654.452 151.975C646.773 143.272 642.535 132.065 642.535 120.459C642.535 108.853 646.773 97.6457 654.452 88.9428C662.131 80.2399 672.723 74.64 684.239 73.1948C695.755 71.7495 707.401 74.5582 716.993 81.0936C726.584 87.6291 733.46 97.4414 736.328 108.688H714.601C712.893 104.723 710.244 101.234 706.885 98.5236C703.525 95.8127 699.554 93.9616 695.318 93.1301C691.082 92.2985 686.708 92.5117 682.573 93.7513C678.437 94.9909 674.666 97.2196 671.586 100.244C666.748 105.692 664.136 112.761 664.27 120.047C664.27 136.136 675.464 147.55 690.563 147.55C695.64 147.719 700.65 146.353 704.939 143.629C709.227 140.906 712.595 136.953 714.601 132.285L736.328 132.23Z" fill="black"></path>
<path d="M761.604 127.199C762.566 141.473 775.355 149.449 787.401 149.202C791.747 149.428 796.068 148.419 799.865 146.292C803.661 144.165 806.778 141.007 808.854 137.183H830.857C827.167 146.245 820.904 154.028 812.841 159.57C805.363 164.743 796.467 167.472 787.374 167.381C775.019 167.13 763.251 162.056 754.587 153.244C745.922 144.432 741.049 132.581 741.006 120.224C740.963 107.866 745.755 95.9811 754.357 87.1091C762.96 78.2371 774.691 73.0813 787.044 72.7435C793.235 72.6503 799.38 73.8219 805.102 76.1864C810.824 78.551 816.003 82.0588 820.323 86.495C825.509 91.809 829.395 98.2516 831.676 105.318C833.957 112.385 834.57 119.884 833.469 127.227L761.604 127.199ZM812.402 110.973C811.605 102.529 802.666 90.6755 787.099 90.8405C771.532 91.0056 762.731 102.199 761.934 110.973H812.402Z" fill="black"></path>
<rect x="141.745" y="0.858398" width="3.35131" height="222.149" transform="rotate(18.9501 141.745 0.858398)" fill="black"></rect>
</svg>