<svg width="473" height="776" viewBox="0 0 473 776" fill="none" xmlns="http://www.w3.org/2000/svg">
<path d="M136.465 77.7923V217.382C91.403 202.439 45.9147 188.415 0 175.312V314.986C45.8923 328.055 91.3806 342.079 136.465 357.056V217.382C247.194 185.797 359.468 159.898 472.846 139.787V0.113281C359.466 20.2518 247.192 46.1788 136.465 77.7923Z" fill="#D9B477"></path>
<path d="M136.465 496.398C91.403 481.454 45.9147 467.431 0 454.327V733.675C45.8923 746.768 91.3806 760.791 136.465 775.746V496.734C247.198 465.165 359.471 439.266 472.846 419.14V279.466C359.469 299.584 247.196 325.483 136.465 357.06V496.398Z" fill="#D9B477"></path>
</svg>