<svg width="195" height="57" viewBox="0 0 195 57" fill="none" xmlns="http://www.w3.org/2000/svg">
<path d="M0 10.2225H14.9253V15.1933H5.66535V21.9132H14.6681V26.8841H5.66535V38.279H0.00627976L0 10.2225Z" fill="white"/>
<path d="M37.9572 38.279H31.8099L43.1918 10.1968H48.1692L59.2876 38.279H53.1014L51.05 32.7809H39.9702L37.9572 38.279ZM45.4362 16.8781L41.4491 28.2602H49.5322L45.4362 16.8781Z" fill="white"/>
<path d="M81.8652 38.279H77.1258V35.2824C76.2127 36.8386 74.2384 38.9285 69.9878 38.9285C63.5573 38.9285 59.4355 33.9191 59.4355 27.8422C59.4355 21.0901 64.2585 16.8009 69.9109 16.8009C73.8979 16.8009 76.1356 18.923 76.8944 20.1384V10.2225H81.8652V38.279ZM64.4063 27.8422C64.3771 28.6902 64.5216 29.5352 64.8312 30.3252C65.1407 31.1152 65.6086 31.8335 66.2061 32.4359C66.8037 33.0383 67.5183 33.512 68.3058 33.8279C69.0933 34.1438 69.9372 34.2952 70.7854 34.2728C71.6441 34.2777 72.4951 34.1126 73.2898 33.787C74.0844 33.4614 74.8068 32.9818 75.4152 32.3757C76.5737 31.137 77.2121 29.5003 77.1977 27.8043C77.1834 26.1082 76.5176 24.4826 75.3383 23.2637C74.7445 22.6792 74.0412 22.2176 73.2687 21.9053C72.4963 21.593 71.67 21.4362 70.8369 21.4438C69.9899 21.4165 69.1463 21.5622 68.3576 21.872C67.5689 22.1818 66.8514 22.6493 66.2495 23.2458C65.6476 23.8423 65.1739 24.5553 64.8569 25.3411C64.5399 26.127 64.3867 26.9693 64.4063 27.8165V27.8422Z" fill="white"/>
<path d="M95.9867 38.2789H91.138L83.4213 17.4439H88.5658L93.5752 32.022L98.5846 17.4439H103.729L95.9867 38.2789Z" fill="white"/>
<path d="M125.509 38.2788H120.539V35.2821C119.214 37.7129 116.442 38.9282 113.516 38.9282C106.841 38.9282 102.932 33.7259 102.932 27.842C102.932 21.2764 107.671 16.8007 113.516 16.8007C117.317 16.8007 119.632 18.8135 120.539 20.479V17.4438H125.509V38.2788ZM107.902 27.9899C107.902 30.5621 109.761 34.3304 114.236 34.3304C115.386 34.3735 116.523 34.0801 117.507 33.486C118.492 32.892 119.282 32.0232 119.78 30.9865C120.252 30.0817 120.523 29.0861 120.577 28.067C120.615 27.0613 120.421 26.0602 120.011 25.1411C119.524 24.0199 118.713 23.0701 117.682 22.4145C116.65 21.7588 115.445 21.4274 114.224 21.4628C110.198 21.4628 107.922 24.7232 107.922 27.9513L107.902 27.9899Z" fill="white"/>
<path d="M128.924 17.4702H133.58C133.58 18.3834 133.58 19.2579 133.541 20.2418C134.454 18.6084 136.313 16.7886 140.036 16.8272C146.827 16.8658 148.119 22.0616 148.119 25.7463V38.2795H143.148V27.0003C143.148 23.8879 142.119 21.4958 138.647 21.4958C135.174 21.4958 133.907 23.8879 133.907 26.8074V38.2795H128.93L128.924 17.4702Z" fill="white"/>
<path d="M172.163 30.7166C171.492 33.3461 169.885 35.6404 167.642 37.1684C165.4 38.6965 162.676 39.3533 159.984 39.0153C157.291 38.6774 154.815 37.368 153.019 35.3332C151.224 33.2983 150.233 30.678 150.233 27.9643C150.233 25.2506 151.224 22.6302 153.019 20.5954C154.815 18.5605 157.291 17.2512 159.984 16.9133C162.676 16.5754 165.4 17.2321 167.642 18.7601C169.885 20.2882 171.492 22.5825 172.163 25.212H167.083C166.683 24.285 166.064 23.4693 165.279 22.8355C164.493 22.2017 163.565 21.7688 162.574 21.5744C161.584 21.38 160.561 21.4298 159.594 21.7197C158.627 22.0095 157.746 22.5306 157.025 23.2378C155.894 24.5116 155.283 26.1645 155.315 27.8678C155.315 31.6297 157.932 34.2984 161.462 34.2984C162.65 34.338 163.821 34.0185 164.824 33.3818C165.826 32.7451 166.614 31.8207 167.083 30.7294L172.163 30.7166Z" fill="white"/>
<path d="M178.073 29.5403C178.298 32.8777 181.288 34.7426 184.104 34.6847C185.12 34.7376 186.131 34.5017 187.019 34.0044C187.906 33.5071 188.635 32.7687 189.12 31.8746H194.265C193.402 33.9933 191.938 35.8131 190.053 37.109C188.304 38.3184 186.224 38.9564 184.098 38.9353C181.209 38.8765 178.458 37.6902 176.432 35.6299C174.406 33.5696 173.267 30.7987 173.257 27.9092C173.247 25.0198 174.367 22.241 176.378 20.1666C178.39 18.0922 181.133 16.8868 184.021 16.8078C185.468 16.786 186.905 17.0599 188.243 17.6128C189.581 18.1656 190.792 18.9858 191.802 20.0231C193.015 21.2655 193.923 22.7719 194.456 24.4242C194.99 26.0764 195.133 27.8297 194.876 29.5467L178.073 29.5403ZM189.95 25.7463C189.764 23.7721 187.673 21.0005 184.034 21.0391C180.394 21.0777 178.336 23.6949 178.15 25.7463H189.95Z" fill="white"/>
<path d="M109.188 54.9075C109.151 54.8729 109.102 54.8537 109.051 54.8537C109 54.8537 108.951 54.8729 108.914 54.9075C108.677 55.1871 108.384 55.4114 108.054 55.5649C107.724 55.7184 107.364 55.7974 107.001 55.7965C106.68 55.7915 106.363 55.7213 106.07 55.5899C105.776 55.4585 105.512 55.2686 105.293 55.0316C105.073 54.7946 104.903 54.5153 104.793 54.2103C104.682 53.9053 104.633 53.5809 104.649 53.2564C104.633 52.9338 104.682 52.6113 104.793 52.3086C104.904 52.0058 105.075 51.729 105.295 51.4951C105.515 51.2612 105.779 51.0751 106.073 50.9481C106.366 50.821 106.682 50.7557 107.001 50.7561C107.353 50.7539 107.703 50.827 108.025 50.9706C108.348 51.1142 108.638 51.3251 108.875 51.5895C108.892 51.6085 108.913 51.6236 108.937 51.634C108.961 51.6443 108.986 51.6497 109.012 51.6497C109.037 51.6497 109.063 51.6443 109.086 51.634C109.11 51.6236 109.131 51.6085 109.149 51.5895L109.47 51.2641C109.504 51.2242 109.524 51.1738 109.525 51.1212C109.525 51.0943 109.519 51.0678 109.508 51.0433C109.498 51.0187 109.482 50.9966 109.462 50.9783C109.144 50.6484 108.761 50.388 108.339 50.2133C107.917 50.0385 107.465 49.9531 107.009 49.9623C106.581 49.9652 106.157 50.0551 105.764 50.2267C105.371 50.3982 105.016 50.648 104.72 50.9611C104.424 51.2743 104.193 51.6444 104.04 52.0496C103.888 52.4547 103.818 52.8867 103.834 53.3199C103.817 53.7475 103.885 54.174 104.035 54.574C104.185 54.974 104.414 55.3392 104.706 55.6476C104.999 55.956 105.351 56.2013 105.74 56.3687C106.129 56.5362 106.547 56.6223 106.969 56.622C107.439 56.6261 107.905 56.53 108.336 56.34C108.767 56.1499 109.153 55.87 109.47 55.5187C109.49 55.5008 109.506 55.4788 109.517 55.4541C109.528 55.4295 109.534 55.4028 109.534 55.3758C109.534 55.3488 109.528 55.322 109.517 55.2974C109.506 55.2728 109.49 55.2508 109.47 55.2329L109.188 54.9075Z" fill="white"/>
<path d="M122.249 50.1449C122.235 50.1106 122.21 50.0812 122.18 50.0602C122.149 50.0391 122.114 50.0272 122.077 50.0258H121.646C121.609 50.0272 121.573 50.0391 121.542 50.0602C121.512 50.0812 121.488 50.1106 121.473 50.1449L118.729 56.241C118.714 56.2704 118.706 56.3031 118.706 56.3362C118.706 56.3694 118.714 56.4021 118.729 56.4315C118.748 56.4582 118.772 56.4801 118.801 56.4952C118.83 56.5104 118.862 56.5185 118.894 56.5188H119.356C119.394 56.5187 119.43 56.5083 119.462 56.4887C119.494 56.4691 119.52 56.4411 119.537 56.4077L120.242 54.8202H123.504L124.209 56.4077C124.226 56.4411 124.252 56.4691 124.284 56.4887C124.316 56.5083 124.352 56.5187 124.389 56.5188H124.876C124.908 56.5185 124.94 56.5104 124.968 56.4952C124.997 56.4801 125.022 56.4582 125.04 56.4315C125.055 56.4021 125.063 56.3694 125.063 56.3362C125.063 56.3031 125.055 56.2704 125.04 56.241L122.249 50.1449ZM120.579 54.0105L121.849 51.2006L123.112 54.0105H120.579Z" fill="white"/>
<path d="M136.533 50.0655H134.409C134.357 50.0655 134.307 50.0864 134.27 50.1236C134.233 50.1608 134.213 50.2114 134.213 50.264V56.2965C134.213 56.3492 134.233 56.3996 134.27 56.4368C134.307 56.4741 134.357 56.495 134.409 56.495H134.856C134.908 56.495 134.957 56.4741 134.994 56.4368C135.031 56.3996 135.052 56.3492 135.052 56.2965V54.2486H136.463C137.968 54.2486 138.979 53.3914 138.979 52.1055C138.979 50.8196 137.999 50.0655 136.533 50.0655ZM136.447 53.439H135.012V50.8751H136.502C136.98 50.8751 138.109 51.0022 138.109 52.1531C138.109 52.931 137.458 53.439 136.447 53.439Z" fill="white"/>
<path d="M148.708 50.0655H148.269C148.161 50.0655 148.073 50.1544 148.073 50.264V56.2966C148.073 56.4062 148.161 56.495 148.269 56.495H148.708C148.816 56.495 148.904 56.4062 148.904 56.2966V50.264C148.904 50.1544 148.816 50.0655 148.708 50.0655Z" fill="white"/>
<path d="M162.828 50.0655H158.226C158.174 50.0655 158.124 50.0864 158.087 50.1236C158.05 50.1608 158.03 50.2114 158.03 50.264V50.6767C158.03 50.7293 158.05 50.7798 158.087 50.8171C158.124 50.8543 158.174 50.8751 158.226 50.8751H160.107V56.2965C160.107 56.3492 160.128 56.3996 160.165 56.4368C160.201 56.4741 160.251 56.495 160.303 56.495H160.75C160.802 56.495 160.852 56.4741 160.889 56.4368C160.925 56.3996 160.946 56.3492 160.946 56.2965V50.8751H162.828C162.88 50.8751 162.93 50.8543 162.966 50.8171C163.003 50.7798 163.024 50.7293 163.024 50.6767V50.264C163.024 50.2114 163.003 50.1608 162.966 50.1236C162.93 50.0864 162.88 50.0655 162.828 50.0655Z" fill="white"/>
<path d="M175.724 50.1449C175.709 50.1106 175.685 50.0812 175.655 50.0602C175.624 50.0391 175.589 50.0272 175.552 50.0258H175.12C175.083 50.0262 175.047 50.0377 175.016 50.0589C174.986 50.0801 174.962 50.11 174.948 50.1449L172.165 56.2251C172.152 56.2553 172.146 56.2884 172.149 56.3213C172.152 56.3542 172.163 56.3859 172.181 56.4135C172.199 56.441 172.223 56.4637 172.252 56.4793C172.28 56.4949 172.313 56.5031 172.345 56.5029H172.823C172.861 56.5028 172.897 56.4924 172.929 56.4729C172.961 56.4533 172.987 56.4252 173.004 56.3918L173.709 54.8043H176.971L177.676 56.3918C177.693 56.4252 177.719 56.4533 177.751 56.4729C177.783 56.4924 177.819 56.5028 177.857 56.5029H178.311C178.344 56.5026 178.375 56.4946 178.404 56.4794C178.433 56.4642 178.457 56.4424 178.476 56.4156C178.491 56.3862 178.499 56.3535 178.499 56.3204C178.499 56.2872 178.491 56.2545 178.476 56.2251L175.724 50.1449ZM174.054 54.0105L175.324 51.2006L176.586 54.0105H174.054Z" fill="white"/>
<path d="M191.788 55.7013H188.503V50.2799C188.503 50.2272 188.482 50.1768 188.445 50.1396C188.409 50.1023 188.359 50.0814 188.307 50.0814H187.868C187.816 50.0814 187.766 50.1023 187.729 50.1396C187.692 50.1768 187.672 50.2272 187.672 50.2799V56.3125C187.672 56.3651 187.692 56.4156 187.729 56.4528C187.766 56.49 187.816 56.5109 187.868 56.5109H191.788C191.84 56.5109 191.89 56.49 191.926 56.4528C191.963 56.4156 191.984 56.3651 191.984 56.3125V55.8997C191.984 55.8471 191.963 55.7966 191.926 55.7594C191.89 55.7222 191.84 55.7013 191.788 55.7013Z" fill="white"/>
<rect x="33.1426" width="0.783579" height="51.9414" transform="rotate(18.9501 33.1426 0)" fill="url(#paint0_linear_246_101)"/>
<defs>
<linearGradient id="paint0_linear_246_101" x1="33.5344" y1="0" x2="33.5344" y2="51.9414" gradientUnits="userSpaceOnUse">
<stop stop-color="white" stop-opacity="0"/>
<stop offset="0.5" stop-color="white"/>
<stop offset="1" stop-color="white" stop-opacity="0"/>
</linearGradient>
</defs>
</svg>
