<svg width="978" height="688" viewBox="0 0 978 688" fill="none" xmlns="http://www.w3.org/2000/svg">
<path d="M147.659 205.297C399.77 73.1683 679.871 3.37061 964.503 1.75" stroke="white" stroke-width="2" stroke-miterlimit="10"/>
<path d="M109.98 299.127C375.36 151.812 673.974 74.7343 977.5 75.2038" stroke="white" stroke-width="2" stroke-miterlimit="10"/>
<path d="M78.4121 390.597C342.602 236.778 649.756 148.721 977.496 148.721" stroke="white" stroke-width="2" stroke-miterlimit="10"/>
<path d="M51.3594 480.171C325.445 314.059 639.274 224.978 959.757 222.323" stroke="white" stroke-width="2" stroke-miterlimit="10"/>
<path d="M860.869 318.133C602.389 159.029 307.544 68.6051 4.30664 55.4395" stroke="white" stroke-width="2" stroke-miterlimit="10"/>
<path d="M888.305 410.93C622.769 239.917 316.542 142.573 1 128.872" stroke="white" stroke-width="2" stroke-miterlimit="10"/>
<path d="M911.292 501.62C644.954 323.352 335.448 220.251 15.4102 203.19" stroke="white" stroke-width="2" stroke-miterlimit="10"/>
<path d="M962.099 686.457C698.35 494.466 386.919 378.636 61.8135 351.615" stroke="white" stroke-width="2" stroke-miterlimit="10"/>
</svg>
